<mxfile host="app.diagrams.net" modified="2021-11-21T10:35:51.849Z" agent="5.0 (Windows NT 10.0; Win64; x64) AppleWebKit/537.36 (KHTML, like Gecko) Chrome/95.0.4638.69 Safari/537.36 Edg/95.0.1020.53" etag="5RIEUJ68GB5mpm4pflcA" version="15.7.3" type="github">
  <diagram id="QjHNRu_plX77i3Iy6dIc" name="第 1 页">
    <mxGraphModel dx="1422" dy="762" grid="1" gridSize="10" guides="1" tooltips="1" connect="1" arrows="1" fold="1" page="1" pageScale="1" pageWidth="827" pageHeight="1169" math="0" shadow="0">
      <root>
        <mxCell id="0" />
        <mxCell id="1" parent="0" />
        <mxCell id="vyqhJjrwpFt2AecIZyBe-3" value="" style="edgeStyle=orthogonalEdgeStyle;rounded=0;orthogonalLoop=1;jettySize=auto;html=1;" edge="1" parent="1" source="vyqhJjrwpFt2AecIZyBe-1" target="vyqhJjrwpFt2AecIZyBe-2">
          <mxGeometry relative="1" as="geometry">
            <Array as="points">
              <mxPoint x="420" y="190" />
              <mxPoint x="260" y="190" />
            </Array>
          </mxGeometry>
        </mxCell>
        <mxCell id="vyqhJjrwpFt2AecIZyBe-5" value="" style="edgeStyle=orthogonalEdgeStyle;rounded=0;orthogonalLoop=1;jettySize=auto;html=1;" edge="1" parent="1" source="vyqhJjrwpFt2AecIZyBe-1" target="vyqhJjrwpFt2AecIZyBe-4">
          <mxGeometry relative="1" as="geometry">
            <Array as="points">
              <mxPoint x="420" y="190" />
              <mxPoint x="600" y="190" />
            </Array>
          </mxGeometry>
        </mxCell>
        <mxCell id="vyqhJjrwpFt2AecIZyBe-1" value="教师用户" style="rounded=1;whiteSpace=wrap;html=1;" vertex="1" parent="1">
          <mxGeometry x="360" y="80" width="120" height="60" as="geometry" />
        </mxCell>
        <mxCell id="vyqhJjrwpFt2AecIZyBe-8" value="" style="edgeStyle=orthogonalEdgeStyle;rounded=0;orthogonalLoop=1;jettySize=auto;html=1;" edge="1" parent="1" source="vyqhJjrwpFt2AecIZyBe-2" target="vyqhJjrwpFt2AecIZyBe-7">
          <mxGeometry relative="1" as="geometry">
            <Array as="points">
              <mxPoint x="260" y="360" />
              <mxPoint x="430" y="360" />
            </Array>
          </mxGeometry>
        </mxCell>
        <mxCell id="vyqhJjrwpFt2AecIZyBe-2" value="选择群组" style="whiteSpace=wrap;html=1;rounded=1;" vertex="1" parent="1">
          <mxGeometry x="200" y="240" width="120" height="60" as="geometry" />
        </mxCell>
        <mxCell id="vyqhJjrwpFt2AecIZyBe-9" style="edgeStyle=orthogonalEdgeStyle;rounded=0;orthogonalLoop=1;jettySize=auto;html=1;entryX=0.5;entryY=0;entryDx=0;entryDy=0;" edge="1" parent="1" source="vyqhJjrwpFt2AecIZyBe-4" target="vyqhJjrwpFt2AecIZyBe-7">
          <mxGeometry relative="1" as="geometry">
            <Array as="points">
              <mxPoint x="600" y="360" />
              <mxPoint x="430" y="360" />
            </Array>
          </mxGeometry>
        </mxCell>
        <mxCell id="vyqhJjrwpFt2AecIZyBe-4" value="创建群组" style="whiteSpace=wrap;html=1;rounded=1;" vertex="1" parent="1">
          <mxGeometry x="540" y="240" width="120" height="60" as="geometry" />
        </mxCell>
        <mxCell id="vyqhJjrwpFt2AecIZyBe-11" style="edgeStyle=orthogonalEdgeStyle;rounded=0;orthogonalLoop=1;jettySize=auto;html=1;entryX=1;entryY=0.5;entryDx=0;entryDy=0;" edge="1" parent="1" source="vyqhJjrwpFt2AecIZyBe-7" target="vyqhJjrwpFt2AecIZyBe-10">
          <mxGeometry relative="1" as="geometry" />
        </mxCell>
        <mxCell id="vyqhJjrwpFt2AecIZyBe-12" value="通知" style="edgeLabel;html=1;align=center;verticalAlign=middle;resizable=0;points=[];" vertex="1" connectable="0" parent="vyqhJjrwpFt2AecIZyBe-11">
          <mxGeometry x="-0.287" y="-2" relative="1" as="geometry">
            <mxPoint x="-28" y="2" as="offset" />
          </mxGeometry>
        </mxCell>
        <mxCell id="vyqhJjrwpFt2AecIZyBe-7" value="消息发布/任务发布" style="whiteSpace=wrap;html=1;rounded=1;" vertex="1" parent="1">
          <mxGeometry x="370" y="410" width="120" height="60" as="geometry" />
        </mxCell>
        <mxCell id="vyqhJjrwpFt2AecIZyBe-15" value="" style="edgeStyle=orthogonalEdgeStyle;rounded=0;orthogonalLoop=1;jettySize=auto;html=1;" edge="1" parent="1" source="vyqhJjrwpFt2AecIZyBe-10" target="vyqhJjrwpFt2AecIZyBe-14">
          <mxGeometry relative="1" as="geometry" />
        </mxCell>
        <mxCell id="vyqhJjrwpFt2AecIZyBe-10" value="成员用户" style="rounded=1;whiteSpace=wrap;html=1;" vertex="1" parent="1">
          <mxGeometry x="20" y="410" width="120" height="60" as="geometry" />
        </mxCell>
        <mxCell id="vyqhJjrwpFt2AecIZyBe-16" style="edgeStyle=orthogonalEdgeStyle;rounded=0;orthogonalLoop=1;jettySize=auto;html=1;entryX=1;entryY=0.5;entryDx=0;entryDy=0;" edge="1" parent="1" source="vyqhJjrwpFt2AecIZyBe-14" target="vyqhJjrwpFt2AecIZyBe-1">
          <mxGeometry relative="1" as="geometry">
            <mxPoint x="740" y="110" as="targetPoint" />
            <Array as="points">
              <mxPoint x="720" y="610" />
              <mxPoint x="720" y="110" />
            </Array>
          </mxGeometry>
        </mxCell>
        <mxCell id="vyqhJjrwpFt2AecIZyBe-17" value="反馈" style="edgeLabel;html=1;align=center;verticalAlign=middle;resizable=0;points=[];" vertex="1" connectable="0" parent="vyqhJjrwpFt2AecIZyBe-16">
          <mxGeometry x="0.2394" y="7" relative="1" as="geometry">
            <mxPoint as="offset" />
          </mxGeometry>
        </mxCell>
        <mxCell id="vyqhJjrwpFt2AecIZyBe-14" value="确认发布" style="whiteSpace=wrap;html=1;rounded=1;" vertex="1" parent="1">
          <mxGeometry x="20" y="570" width="120" height="60" as="geometry" />
        </mxCell>
      </root>
    </mxGraphModel>
  </diagram>
</mxfile>
